# File created by Blade
# Date/Time:  Tue Sep 30 19:29:15 2014
#---------------------------------------------------------
:version 1.10
:name HOM
:units
  mass 1.0
  length 1.000000
  angle deg
:documentation
     Acclaim Skeleton File
:root
   axis xyz
   order TX TY TZ RX RY RZ
   position 0.000000 0.000000 0.000000
   orientation 0 0 0
:bonedata
   begin
      id 1
      name RightUpLeg_dum
      direction -1.000000 0.000000 0.000000
      length 3.766986
      axis 0.0 0.0 0.0 xyz
   end
   begin
      id 2
      name LeftUpLeg_dum
      direction 1.000000 0.000000 0.000000
      length 3.766986
      axis 0.0 0.0 0.0 xyz
   end
   begin
      id 3
      name Spine_dum
      direction 0.000000 1.000000 0.000000
      length 7.779697
      axis 0.0 0.0 0.0 xyz
   end
   begin
      id 4
      name RightUpLeg
      direction 0.000000 -1.000000 0.000000
      length 18.017682
      axis 0.0 0.0 0.0 xyz
      dof rx ry rz
   end
   begin
      id 5
      name RightLeg
      direction 0.000000 -1.000000 0.000000
      length 16.881075
      axis 0.0 0.0 0.0 xyz
      dof rx ry rz
   end
   begin
      id 6
      name RightFoot
      direction 0.000000 -0.258819 0.965926
      length 5.770812
      axis 15.0 0.0 0.0 xyz
      dof rx ry rz
   end
   begin
      id 7
      name RightToeBase
      direction 0.000000 0.000000 1.000000
      length 2.952750
      axis 0.0 0.0 0.0 xyz
      dof rx ry rz
   end
   begin
      id 8
      name LeftUpLeg
      direction 0.000000 -1.000000 0.000000
      length 18.017682
      axis 0.0 0.0 0.0 xyz
      dof rx ry rz
   end
   begin
      id 9
      name LeftLeg
      direction 0.000000 -1.000000 0.000000
      length 16.881075
      axis 0.0 0.0 0.0 xyz
      dof rx ry rz
   end
   begin
      id 10
      name LeftFoot
      direction 0.000000 -0.258819 0.965926
      length 5.770812
      axis 15.0 0.0 0.0 xyz
      dof rx ry rz
   end
   begin
      id 11
      name LeftToeBase
      direction 0.000000 0.000000 1.000000
      length 2.952750
      axis 0.0 0.0 0.0 xyz
      dof rx ry rz
   end
   begin
      id 12
      name Spine
      direction 0.000000 1.000000 0.000000
      length 0.000000
      axis 0.0 0.0 0.0 xyz
      dof rx ry rz
   end
   begin
      id 13
      name Spine_dum1
      direction 0.000000 1.000000 0.000000
      length 10.941760
      axis 0.0 0.0 0.0 xyz
   end
   begin
      id 14
      name Spine_dum2
      direction 0.000000 1.000000 0.000000
      length 10.941760
      axis 0.0 0.0 0.0 xyz
   end
   begin
      id 15
      name Spine_dum3
      direction 0.000000 1.000000 0.000000
      length 16.646042
      axis 0.0 0.0 0.0 xyz
   end
   begin
      id 16
      name RightShoulder
      direction -1.000000 0.000000 0.000000
      length 7.708937
      axis 0.0 0.0 90.0 xyz
      dof rx ry rz
   end
   begin
      id 17
      name RightArm
      direction -1.000000 0.000000 0.000000
      length 11.521345
      axis 0.0 0.0 90.0 xyz
      dof rx ry rz
   end
   begin
      id 18
      name RightForeArm
      direction -1.000000 0.000000 0.000000
      length 10.175898
      axis 0.0 0.0 90.0 xyz
      dof ry rz rx
   end
   begin
      id 19
      name RightHand
      direction -1.000000 0.000000 0.000000
      length 0.000000
      axis 0.0 0.0 90.0 xyz
      dof rx ry rz
   end
   begin
      id 20
      name RightHand_dum1
      direction -1.000000 0.000000 0.000000
      length 3.937000
      axis 0.0 0.0 90.0 xyz
   end
   begin
      id 21
      name RightHand_dum2
      direction 0.000000 0.000000 0.000000
      length 0.000000
      axis 0.0 0.0 90.0 xyz
   end
   begin
      id 22
      name RightHandThumb1
      direction 0.000000 0.000000 1.000000
      length 3.937000
      axis 0.0 0.0 90.0 xyz
      dof rx rz ry
   end
   begin
      id 23
      name LeftShoulder
      direction 1.000000 0.000000 0.000000
      length 7.708937
      axis 0.0 0.0 -90.0 xyz
      dof rx ry rz
   end
   begin
      id 24
      name LeftArm
      direction 1.000000 0.000000 0.000000
      length 11.521345
      axis 0.0 0.0 -90.0 xyz
      dof rx ry rz
   end
   begin
      id 25
      name LeftForeArm
      direction 1.000000 0.000000 0.000000
      length 10.175898
      axis 0.0 0.0 -90.0 xyz
      dof ry rz rx
   end
   begin
      id 26
      name LeftHand
      direction 1.000000 0.000000 0.000000
      length 0.000000
      axis 0.0 0.0 -90.0 xyz
      dof rx ry rz
   end
   begin
      id 27
      name LeftHand_dum1
      direction 1.000000 0.000000 0.000000
      length 3.937000
      axis 0.0 0.0 -90.0 xyz
   end
   begin
      id 28
      name LeftHand_dum2
      direction 0.000000 0.000000 0.000000
      length 0.000000
      axis 0.0 0.0 -90.0 xyz
   end
   begin
      id 29
      name LeftHandThumb1
      direction 0.000000 0.000000 1.000000
      length 3.937000
      axis 0.0 0.0 -90.0 xyz
      dof rx rz ry
   end
   begin
      id 30
      name Head
      direction 0.000000 1.000000 0.000000
      length 4.527550
      axis 0.0 0.0 0.0 xyz
      dof rx ry rz
   end
:hierarchy
   begin
      root RightUpLeg_dum LeftUpLeg_dum Spine_dum
      RightUpLeg_dum RightUpLeg
      LeftUpLeg_dum LeftUpLeg
      Spine_dum Spine
      RightUpLeg RightLeg
      RightLeg RightFoot
      RightFoot RightToeBase
      LeftUpLeg LeftLeg
      LeftLeg LeftFoot
      LeftFoot LeftToeBase
      Spine Spine_dum1 Spine_dum2 Spine_dum3
      Spine_dum1 RightShoulder
      Spine_dum2 LeftShoulder
      Spine_dum3 Head
      RightShoulder RightArm
      RightArm RightForeArm
      RightForeArm RightHand
      RightHand RightHand_dum1 RightHand_dum2
      RightHand_dum2 RightHandThumb1
      LeftShoulder LeftArm
      LeftArm LeftForeArm
      LeftForeArm LeftHand
      LeftHand LeftHand_dum1 LeftHand_dum2
      LeftHand_dum2 LeftHandThumb1
   end

# File created by Blade
# Date/Time:  Mon Sep 22 16:45:27 2014
# Frame Rate: 120.000 fps
#------------------------------------------------------
:FULLY-SPECIFIED
:DEGREES
270
root 3.711516 36.667958 1.387901 -39.733468 8.022466 17.406110
RightUpLeg 33.056692 -4.328581 -16.766729
RightLeg 30.523153 -0.000000 -0.000000
RightFoot -31.513441 -16.139335 13.343615
RightToeBase 7.715460 -0.000000 -0.000000
LeftUpLeg -87.481810 10.197899 -10.136117
LeftLeg 121.795508 -0.000000 -0.000000
LeftFoot 8.711955 8.960235 -30.655545
LeftToeBase 5.624059 -0.000000 -0.000000
Spine 44.624753 7.661730 -14.877087
RightShoulder 10.004240 -8.455982 -23.546559
RightArm 44.289831 6.887490 61.024688
RightForeArm -22.619564 -0.000000 77.111482
RightHand 1.726405 -0.000000 -30.817715
RightHandThumb1 -24.326973 -0.000000 -32.862282
LeftShoulder -7.984605 24.957016 -0.620458
LeftArm 58.144738 -5.198568 -56.724835
LeftForeArm -13.083637 -0.000000 57.655065
LeftHand -8.853615 -0.000000 -19.210899
LeftHandThumb1 -26.253704 0.000000 33.147579
Head 0.894330 3.724326 -4.947816
271
root 3.715920 36.671270 1.402968 -39.726862 7.915544 17.405699
RightUpLeg 33.059905 -4.284618 -16.741934
RightLeg 30.487907 -0.000000 -0.000000
RightFoot -31.523474 -16.064737 13.360274
RightToeBase 7.772911 -0.000000 -0.000000
LeftUpLeg -87.465181 10.225053 -10.055593
LeftLeg 121.767718 -0.000000 -0.000000
LeftFoot 8.481149 8.905722 -30.505607
LeftToeBase 5.480539 -0.000000 -0.000000
Spine 44.606303 7.698927 -14.798851
RightShoulder 9.968170 -8.469022 -23.518867
RightArm 44.178288 6.905881 60.972855
RightForeArm -22.497529 -0.000000 77.252202
RightHand 1.628933 -0.000000 -30.699989
RightHandThumb1 -24.326973 -0.000000 -32.862282
LeftShoulder -8.159490 24.981064 -0.843877
LeftArm 58.017136 -5.181372 -56.697345
LeftForeArm -12.700659 -0.000000 58.060663
LeftHand -8.883375 -0.000000 -19.195880
LeftHandThumb1 -26.253704 0.000000 33.147579
Head 0.754118 3.693648 -4.795652
272
root 3.718746 36.674882 1.417581 -39.723586 7.830831 17.404880
RightUpLeg 33.079246 -4.244211 -16.710576
RightLeg 30.435401 -0.000000 -0.000000
RightFoot -31.520000 -16.031679 13.366037
RightToeBase 7.790257 -0.000000 -0.000000
LeftUpLeg -87.431360 10.232448 -9.983313
LeftLeg 121.750552 -0.000000 -0.000000
LeftFoot 8.181415 8.814739 -30.376438
LeftToeBase 5.374319 -0.000000 -0.000000
Spine 44.598475 7.738436 -14.744813
RightShoulder 9.941111 -8.501325 -23.476978
RightArm 44.076494 6.935563 60.920694
RightForeArm -22.407911 0.000000 77.381997
RightHand 1.574588 -0.000000 -31.056916
RightHandThumb1 -24.326973 -0.000000 -32.862282
LeftShoulder -8.344264 24.984128 -1.021095
LeftArm 57.902425 -5.122912 -56.683541
LeftForeArm -12.286147 0.000000 58.482666
LeftHand -8.864061 -0.000000 -18.978215
LeftHandThumb1 -26.253704 0.000000 33.147579
Head 0.616657 3.653820 -4.622637
273
root 3.718072 36.677218 1.434623 -39.737852 7.758859 17.378263
RightUpLeg 33.129989 -4.194743 -16.630684
RightLeg 30.373324 -0.000000 -0.000000
RightFoot -31.519842 -16.038673 13.376625
RightToeBase 7.812285 -0.000000 -0.000000
LeftUpLeg -87.390539 10.251403 -9.901288
LeftLeg 121.767557 -0.000000 -0.000000
LeftFoot 7.843572 8.688119 -30.299503
LeftToeBase 5.292199 -0.000000 -0.000000
Spine 44.602579 7.779246 -14.678331
RightShoulder 9.898626 -8.553132 -23.424299
RightArm 43.997383 6.990160 60.902806
RightForeArm -22.548901 -0.000000 77.473740
RightHand 1.653944 -0.000000 -31.008699
RightHandThumb1 -24.326973 -0.000000 -32.862282
LeftShoulder -8.554942 24.990737 -1.175088
LeftArm 57.853112 -5.038823 -56.700293
LeftForeArm -11.835909 0.000000 58.886578
LeftHand -8.885000 -0.000000 -18.885344
LeftHandThumb1 -26.253704 0.000000 33.147579
Head 0.513125 3.586689 -4.445739
274
root 3.716285 36.678550 1.454140 -39.731605 7.692348 17.365919
RightUpLeg 33.160565 -4.128251 -16.542945
RightLeg 30.321845 -0.000000 -0.000000
RightFoot -31.550634 -16.055116 13.386233
RightToeBase 7.855631 -0.000000 -0.000000
LeftUpLeg -87.398080 10.279897 -9.854380
LeftLeg 121.814289 -0.000000 -0.000000
LeftFoot 7.531993 8.604245 -30.145212
LeftToeBase 5.274814 -0.000000 -0.000000
Spine 44.562150 7.835880 -14.638515
RightShoulder 9.887127 -8.572342 -23.349865
RightArm 43.838193 7.050304 60.896349
RightForeArm -22.603059 -0.000000 77.601060
RightHand 1.720332 -0.000000 -30.945309
RightHandThumb1 -24.326973 -0.000000 -32.862282
LeftShoulder -8.752550 25.033508 -1.304207
LeftArm 57.847454 -4.984080 -56.759664
LeftForeArm -11.323124 -0.000000 59.256679
LeftHand -8.791336 -0.000000 -18.673700
LeftHandThumb1 -26.253704 0.000000 33.147579
Head 0.457545 3.523738 -4.245548
275
root 3.717984 36.683444 1.475176 -39.762688 7.660976 17.358280
RightUpLeg 33.252468 -4.058762 -16.480801
RightLeg 30.240501 -0.000000 -0.000000
RightFoot -31.554910 -16.081744 13.424237
RightToeBase 7.869024 -0.000000 -0.000000
LeftUpLeg -87.338399 10.194096 -9.789331
LeftLeg 121.887420 -0.000000 -0.000000
LeftFoot 7.144121 8.496602 -30.019376
LeftToeBase 5.152142 -0.000000 -0.000000
Spine 44.572759 7.894709 -14.614170
RightShoulder 9.864480 -8.608177 -23.267916
RightArm 43.693128 7.126779 60.896536
RightForeArm -22.707908 -0.000000 77.731853
RightHand 1.381874 -0.000000 -30.636341
RightHandThumb1 -24.326973 -0.000000 -32.862282
LeftShoulder -8.905944 25.047017 -1.346883
LeftArm 57.823437 -4.901227 -56.906469
LeftForeArm -10.685122 -0.000000 59.642832
LeftHand -8.769369 0.000000 -18.412122
LeftHandThumb1 -26.253704 0.000000 33.147579
Head 0.397572 3.278407 -4.073877
276
root 3.723151 36.688461 1.494275 -39.784369 7.673261 17.331485
RightUpLeg 33.345517 -4.024070 -16.427752
RightLeg 30.159268 -0.000000 -0.000000
RightFoot -31.538237 -16.132270 13.437283
RightToeBase 7.816221 -0.000000 -0.000000
LeftUpLeg -87.319843 10.089198 -9.759494
LeftLeg 122.003931 -0.000000 -0.000000
LeftFoot 6.809076 8.378747 -29.942862
LeftToeBase 5.133100 -0.000000 -0.000000
Spine 44.582368 7.892022 -14.582154
RightShoulder 9.841029 -8.666721 -23.220906
RightArm 43.589556 7.207299 60.921969
RightForeArm -22.612469 -0.000000 77.843018
RightHand 1.612099 -0.000000 -30.921395
RightHandThumb1 -24.326973 -0.000000 -32.862282
LeftShoulder -9.040320 25.126921 -1.455723
LeftArm 57.890989 -4.906347 -56.994797
LeftForeArm -10.188549 -0.000000 59.996755
LeftHand -8.698929 -0.000000 -18.276368
LeftHandThumb1 -26.253704 0.000000 33.147579
Head 0.387516 3.199571 -3.886259
277
root 3.729431 36.690565 1.509540 -39.777351 7.732000 17.297591
RightUpLeg 33.411232 -4.044326 -16.405889
RightLeg 30.094623 -0.000000 -0.000000
RightFoot -31.519665 -16.199665 13.386916
RightToeBase 7.816754 -0.000000 -0.000000
LeftUpLeg -87.337639 9.970655 -9.778542
LeftLeg 122.152229 -0.000000 -0.000000
LeftFoot 6.464173 8.237075 -29.818037
LeftToeBase 5.241858 -0.000000 -0.000000
Spine 44.562626 7.869901 -14.589966
RightShoulder 9.833433 -8.743548 -23.153325
RightArm 43.467645 7.315534 60.959472
RightForeArm -22.635429 -0.000000 77.956109
RightHand 1.605666 0.000000 -30.976299
RightHandThumb1 -24.326973 -0.000000 -32.862282
LeftShoulder -9.088925 25.156406 -1.465935
LeftArm 57.877484 -4.894451 -57.144773
LeftForeArm -9.571862 -0.000000 60.399711
LeftHand -8.721087 -0.000000 -18.122203
LeftHandThumb1 -26.253704 0.000000 33.147579
Head 0.407762 2.904802 -3.786603
278
root 3.736251 36.695378 1.531204 -39.815757 7.763472 17.276908
RightUpLeg 33.532525 -4.003333 -16.357576
RightLeg 30.005007 -0.000000 -0.000000
RightFoot -31.521643 -16.257701 13.417658
RightToeBase 7.818117 -0.000000 -0.000000
LeftUpLeg -87.301987 9.788105 -9.722396
LeftLeg 122.364793 -0.000000 -0.000000
LeftFoot 6.182530 8.049759 -29.606073
LeftToeBase 5.105108 -0.000000 -0.000000
Spine 44.582499 7.872039 -14.565851
RightShoulder 9.791985 -8.815306 -23.123493
RightArm 43.372026 7.394711 61.027873
RightForeArm -22.656242 -0.000000 78.041323
RightHand 1.668956 -0.000000 -31.087187
RightHandThumb1 -24.326973 -0.000000 -32.862282
LeftShoulder -9.086967 25.133044 -1.476376
LeftArm 57.795212 -4.877608 -57.230036
LeftForeArm -9.129497 -0.000000 60.821292
LeftHand -8.766333 -0.000000 -17.772778
LeftHandThumb1 -26.253704 0.000000 33.147579
Head 0.445845 2.928540 -3.618806
279
root 3.738677 36.697586 1.552695 -39.834477 7.780412 17.257672
RightUpLeg 33.622787 -3.937776 -16.261693
RightLeg 29.927902 -0.000000 -0.000000
RightFoot -31.532757 -16.394142 13.392003
RightToeBase 7.805806 -0.000000 -0.000000
LeftUpLeg -87.324955 9.682402 -9.680827
LeftLeg 122.630636 -0.000000 -0.000000
LeftFoot 5.945257 7.893780 -29.521519
LeftToeBase 5.222159 -0.000000 -0.000000
Spine 44.572410 7.895429 -14.573315
RightShoulder 9.740548 -8.877568 -23.041889
RightArm 43.300374 7.468177 61.080609
RightForeArm -22.723729 -0.000000 78.114557
RightHand 1.728176 -0.000000 -30.957288
RightHandThumb1 -24.326973 -0.000000 -32.862282
LeftShoulder -9.089011 25.180419 -1.448944
LeftArm 57.769303 -4.877849 -57.277068
LeftForeArm -8.797290 -0.000000 61.245522
LeftHand -8.838272 -0.000000 -17.545908
LeftHandThumb1 -26.253704 0.000000 33.147579
Head 0.485985 2.833164 -3.450713
280
root 3.739047 36.697722 1.570982 -39.816988 7.754925 17.258634
RightUpLeg 33.643463 -3.839807 -16.137536
RightLeg 29.880704 -0.000000 -0.000000
RightFoot -31.545553 -16.579021 13.321365
RightToeBase 7.767826 -0.000000 -0.000000
LeftUpLeg -87.432624 9.641733 -9.678233
LeftLeg 122.910632 -0.000000 -0.000000
LeftFoot 5.838798 7.903530 -29.446554
LeftToeBase 5.360385 -0.000000 -0.000000
Spine 44.511840 7.945284 -14.596332
RightShoulder 9.702827 -8.946576 -22.955436
RightArm 43.244867 7.530953 61.124202
RightForeArm -22.798534 -0.000000 78.195811
RightHand 1.556180 0.000000 -30.784806
RightHandThumb1 -24.326973 -0.000000 -32.862282
LeftShoulder -9.080157 25.194188 -1.438403
LeftArm 57.714433 -4.885002 -57.313587
LeftForeArm -8.461356 -0.000000 61.659579
LeftHand -8.934736 -0.000000 -17.513664
LeftHandThumb1 -26.253704 0.000000 33.147579
Head 0.552731 2.734654 -3.297295
281
root 3.735984 36.697526 1.588702 -39.777819 7.706712 17.301934
RightUpLeg 33.621003 -3.699988 -16.010158
RightLeg 29.860974 -0.000000 -0.000000
RightFoot -31.609794 -16.807342 13.234817
RightToeBase 7.872616 -0.000000 -0.000000
LeftUpLeg -87.547681 9.639078 -9.662225
LeftLeg 123.227194 -0.000000 -0.000000
LeftFoot 5.832923 7.863209 -29.424196
LeftToeBase 5.534728 -0.000000 -0.000000
Spine 44.409898 8.062725 -14.676486
RightShoulder 9.662587 -9.026945 -22.811271
RightArm 43.208321 7.576842 61.121797
RightForeArm -22.694734 -0.000000 78.221067
RightHand 1.697762 -0.000000 -31.149032
RightHandThumb1 -24.326973 -0.000000 -32.862282
LeftShoulder -9.067209 25.238566 -1.366044
LeftArm 57.673838 -4.871328 -57.282406
LeftForeArm -8.296058 -0.000000 62.038011
LeftHand -9.026210 -0.000000 -17.256676
LeftHandThumb1 -26.253704 0.000000 33.147579
Head 0.627124 2.345193 -3.181070
282
root 3.733325 36.693311 1.605977 -39.717861 7.648115 17.297418
RightUpLeg 33.575799 -3.596828 -15.842045
RightLeg 29.842397 -0.000000 -0.000000
RightFoot -31.655703 -17.096944 13.021976
RightToeBase 8.008938 -0.000000 -0.000000
LeftUpLeg -87.714534 9.640333 -9.595008
LeftLeg 123.574957 -0.000000 -0.000000
LeftFoot 6.057688 7.722368 -29.227918
LeftToeBase 5.212344 -0.000000 -0.000000
Spine 44.298510 8.092101 -14.697417
RightShoulder 9.616498 -9.124631 -22.755212
RightArm 43.230654 7.606830 61.185384
RightForeArm -22.762946 -0.000000 78.261621
RightHand 1.639642 0.000000 -31.147553
RightHandThumb1 -24.326973 -0.000000 -32.862282
LeftShoulder -9.096643 25.250971 -1.376742
LeftArm 57.614124 -4.846480 -57.169253
LeftForeArm -8.347164 -0.000000 62.371391
LeftHand -9.134125 -0.000000 -17.053591
LeftHandThumb1 -26.253704 0.000000 33.147579
Head 0.718439 2.553639 -2.967786
